<?xml version="1.0" encoding="utf-8"?>
<!-- Generator: Adobe Illustrator 17.0.0, SVG Export Plug-In . SVG Version: 6.00 Build 0)  -->
<!DOCTYPE svg PUBLIC "-//W3C//DTD SVG 1.1//EN" "http://www.w3.org/Graphics/SVG/1.1/DTD/svg11.dtd">
<svg version="1.1" xmlns="http://www.w3.org/2000/svg" xmlns:xlink="http://www.w3.org/1999/xlink" x="0px" y="0px"
	 width="28.812px" height="20.562px" viewBox="402.945 285.078 28.812 20.562"
	 enable-background="new 402.945 285.078 28.812 20.562" xml:space="preserve">
<g id="thumb-up" display="none">
	<g display="inline">
		<path fill="#9B9A9A" d="M421.45,293.877"/>
		<polygon fill="#9B9A9A" points="410.723,294.847 410.723,304.959 423.103,304.959 427.278,295.08 426.344,293.402 
			419.237,293.402 419.82,289.536 418.532,285.513 416.152,285.513 416.152,289.261 412.717,294.384 		"/>
		<rect x="406.586" y="294.885" fill="#9B9A9A" width="3.062" height="10.074"/>
	</g>
</g>
<g id="thumb-down" display="none">
	<g display="inline">
		<path fill="#99999A" d="M412.405,296.596"/>
		<polygon fill="#99999A" points="423.122,295.626 423.122,285.513 410.756,285.513 406.582,295.392 407.518,297.071 
			414.618,297.071 414.033,300.937 415.32,304.959 417.7,304.959 417.7,301.21 421.133,296.088 		"/>
		<polygon fill="#99999A" points="424.198,295.587 424.198,285.513 427.257,285.513 427.278,295.587 		"/>
	</g>
</g>
<g id="link" display="none">
	
		<polygon display="inline" fill="none" stroke="#99999A" stroke-width="1.5" stroke-linecap="round" stroke-linejoin="round" stroke-miterlimit="10" points="
		422.294,285.659 415.447,292.506 416.577,293.636 419.483,290.731 421.46,292.708 418.554,295.613 419.682,296.742 426.53,289.895 
			"/>
	
		<polygon display="inline" fill="none" stroke="#99999A" stroke-width="1.5" stroke-linecap="round" stroke-linejoin="round" stroke-miterlimit="10" points="
		414.612,299.555 412.636,297.578 415.311,294.902 414.182,293.772 407.334,300.619 411.57,304.854 418.417,298.007 
		417.288,296.879 	"/>
	
		<rect x="415.65" y="290.301" transform="matrix(-0.7071 -0.7071 0.7071 -0.7071 503.2473 798.7375)" display="inline" fill="none" stroke="#99999A" stroke-width="1.5" stroke-linecap="round" stroke-linejoin="round" stroke-miterlimit="10" width="2.796" height="9.683"/>
</g>
<g id="레이어_7" display="none">
	
		<polyline display="inline" fill="none" stroke="#999999" stroke-width="1.3199" stroke-linecap="round" stroke-linejoin="round" stroke-miterlimit="10" points="
		420.674,302.194 429.258,302.194 429.258,285.732 412.795,285.732 412.795,293.328 	"/>
	
		<polygon display="inline" fill="none" stroke="#999999" stroke-width="0.937" stroke-linecap="round" stroke-linejoin="round" stroke-miterlimit="10" points="
		412.795,293.328 408.987,293.328 408.987,305.015 420.674,305.015 420.674,302.194 412.795,302.194 	"/>
	
		<polyline display="inline" fill="none" stroke="#999999" stroke-width="1.3199" stroke-linecap="round" stroke-linejoin="round" stroke-miterlimit="10" points="
		412.795,293.328 412.795,302.194 420.674,302.194 	"/>
	
		<line display="inline" fill="none" stroke="#999999" stroke-width="1.3199" stroke-linecap="round" stroke-linejoin="round" stroke-miterlimit="10" x1="418.286" y1="293.963" x2="423.767" y2="293.963"/>
	
		<line display="inline" fill="none" stroke="#999999" stroke-width="1.3199" stroke-linecap="round" stroke-linejoin="round" stroke-miterlimit="10" x1="421.026" y1="291.222" x2="421.026" y2="296.703"/>
</g>
<g id="레이어_8" display="none">
	
		<path display="inline" fill="none" stroke="#999999" stroke-width="0.25" stroke-linecap="round" stroke-linejoin="round" stroke-miterlimit="10" d="
		M406.643,295.359c0.375,0,21.417,0,21.417,0"/>
</g>
<g id="comment">
	<g>
		
			<polygon fill="none" stroke="#99999A" stroke-width="1.5" stroke-linecap="round" stroke-linejoin="round" stroke-miterlimit="10" points="
			421.025,286.764 408.57,299.219 407.444,304.787 412.842,303.49 425.297,291.035 		"/>
		
			<polyline fill="none" stroke="#99999A" stroke-width="1.5" stroke-linecap="round" stroke-linejoin="round" stroke-miterlimit="10" points="
			421.658,287.374 423.391,285.64 426.421,288.669 424.687,290.403 		"/>
		
			<line fill="none" stroke="#99999A" stroke-width="1.5" stroke-linecap="round" stroke-linejoin="round" stroke-miterlimit="10" x1="408.57" y1="299.219" x2="412.842" y2="303.49"/>
	</g>
</g>
<g id="write" display="none">
	<g display="inline">
		
			<polygon fill="none" stroke="#99999A" stroke-width="1.5" stroke-linecap="round" stroke-linejoin="round" stroke-miterlimit="10" points="
			421.025,286.764 408.57,299.219 407.444,304.787 412.842,303.49 425.297,291.035 		"/>
		
			<polyline fill="none" stroke="#99999A" stroke-width="1.5" stroke-linecap="round" stroke-linejoin="round" stroke-miterlimit="10" points="
			421.658,287.374 423.391,285.64 426.421,288.669 424.687,290.403 		"/>
		
			<line fill="none" stroke="#99999A" stroke-width="1.5" stroke-linecap="round" stroke-linejoin="round" stroke-miterlimit="10" x1="408.57" y1="299.219" x2="412.842" y2="303.49"/>
	</g>
</g>
<g id="view" display="none">
	<g display="inline">
		<path fill="none" stroke="#99999A" stroke-width="1.5" stroke-linecap="round" stroke-miterlimit="10" d="M416.753,289.775
			c-7.05,0-9.898,4.668-9.898,4.668s2.848,4.668,9.898,4.668s9.898-4.668,9.898-4.668S423.803,289.775,416.753,289.775z"/>
		
			<circle fill="none" stroke="#99999A" stroke-width="1.5" stroke-linecap="round" stroke-miterlimit="10" cx="416.753" cy="294.443" r="4.668"/>
	</g>
</g>
<g id="account" display="none">
	
		<rect x="407.086" y="285.984" display="inline" fill="#FFFFFF" stroke="#5E5E5E" stroke-width="0.25" stroke-linecap="round" stroke-miterlimit="10" width="19.691" height="18.504"/>
	
		<circle display="inline" fill="#5E5E5E" stroke="#5E5E5E" stroke-width="0.25" stroke-linecap="round" stroke-miterlimit="10" cx="416.932" cy="290.918" r="2.92"/>
	<path display="inline" fill="#5E5E5E" stroke="#5E5E5E" stroke-width="0.25" stroke-linecap="round" stroke-miterlimit="10" d="
		M424.255,304.488c0-5.242-3.279-9.492-7.323-9.492s-7.323,4.25-7.323,9.492H424.255z"/>
</g>
</svg>
