<?xml version="1.0" encoding="utf-8"?>
<!-- Generator: Adobe Illustrator 17.0.0, SVG Export Plug-In . SVG Version: 6.00 Build 0)  -->
<!DOCTYPE svg PUBLIC "-//W3C//DTD SVG 1.1//EN" "http://www.w3.org/Graphics/SVG/1.1/DTD/svg11.dtd">
<svg version="1.1" xmlns="http://www.w3.org/2000/svg" xmlns:xlink="http://www.w3.org/1999/xlink" x="0px" y="0px"
	 width="20.693px" height="19.445px" viewBox="406.586 285.513 20.693 19.445"
	 enable-background="new 406.586 285.513 20.693 19.445" xml:space="preserve">
<g id="thumb-up" display="none">
	<g display="inline">
		<path fill="#9B9A9A" d="M421.45,293.877"/>
		<polygon fill="#9B9A9A" points="410.723,294.847 410.723,304.959 423.103,304.959 427.278,295.08 426.344,293.402 
			419.237,293.402 419.82,289.536 418.532,285.513 416.152,285.513 416.152,289.261 412.717,294.384 		"/>
		<rect x="406.586" y="294.885" fill="#9B9A9A" width="3.062" height="10.074"/>
	</g>
</g>
<g id="레이어_2">
	<g>
		<path fill="#99999A" d="M412.405,296.596"/>
		<polygon fill="#99999A" points="423.122,295.626 423.122,285.513 410.756,285.513 406.582,295.392 407.518,297.071 
			414.618,297.071 414.033,300.937 415.32,304.959 417.7,304.959 417.7,301.21 421.133,296.088 		"/>
		<polygon fill="#99999A" points="424.198,295.587 424.198,285.513 427.257,285.513 427.278,295.587 		"/>
	</g>
</g>
</svg>
